<svg xmlns="http://www.w3.org/2000/svg" xmlns:xlink="http://www.w3.org/1999/xlink" xmlns:lucid="lucid" width="463.14" height="218.94"><g transform="translate(10 10)" lucid:page-tab-id="Ua7fM~68rRYn"><path d="M10 100.98c0-5.53 4.48-10 10-10h110.06c5.52 0 10 4.47 10 10v77.96c0 5.53-4.48 10-10 10H20c-5.52 0-10-4.47-10-10z" stroke="#000" stroke-width="2" fill="#fff"/><path d="M10 90h56.8v31.45H10z" fill="#fff" fill-opacity="0"/><use xlink:href="#a" transform="matrix(1,0,0,1,15,94.99999999999991) translate(7.4453125 16.50173611111111)"/><path d="M309.62 100.98c0-5.53 4.48-10 10-10h103.52c5.52 0 10 4.47 10 10v77.96c0 5.53-4.48 10-10 10H319.62c-5.52 0-10-4.47-10-10z" stroke="#000" stroke-width="2" fill="#fff"/><path d="M309.62 90h56.78v31.45h-56.78z" fill="#fff" fill-opacity="0"/><use xlink:href="#b" transform="matrix(1,0,0,1,314.619108354405,94.99999999999991) translate(7.4453125 16.50173611111111)"/><path d="M177.72 10h97.34v46.67h-97.34z" stroke="#000" stroke-width="2" fill="#c1e4f7"/><use xlink:href="#c" transform="matrix(1,0,0,1,182.7230126802259,15) translate(22.59375 25.75173611111111)"/><path d="M160 162.28h117.44" stroke="#000" stroke-width="2" fill="none"/><path d="M160.03 163.28H159v-2h1.03z"/><path d="M292.7 162.28l-14.26 4.64v-9.28z" stroke="#000" stroke-width="2"/><path d="M232.44 78.58v36.48c0 11.05-8.95 20-20 20h-52.88" stroke="#000" stroke-width="2" fill="none"/><path d="M233.44 78.6h-2v-1.02h2z"/><path d="M144.3 135.06l14.26-4.63v9.27z" stroke="#000" stroke-width="2"/><path d="M142.06 124.95h58.3c11.06 0 20-8.95 20-20v-8.87" stroke="#000" stroke-width="2" fill="none"/><path d="M142.1 125.95h-1.04v-2h1.03z"/><path d="M220.37 80.8L225 95.1h-9.26z" stroke="#000" stroke-width="2"/><path d="M198 53c0-1.66 1.34-3 3-3h50.8c1.64 0 3 1.34 3 3v20.58c0 1.65-1.36 3-3 3H201c-1.66 0-3-1.35-3-3z" stroke="#000" stroke-width="2" fill="#c7e8ac"/><use xlink:href="#d" transform="matrix(1,0,0,1,203,55) translate(3.431640625 13.438802083333334)"/><path d="M98 152.25c0-1.65 1.34-3 3-3h54c1.66 0 3 1.35 3 3v20.58c0 1.66-1.34 3-3 3h-54c-1.66 0-3-1.34-3-3z" stroke="#000" stroke-width="2" fill="#c7e8ac"/><use xlink:href="#e" transform="matrix(1,0,0,1,103,154.25385512892217) translate(2.467809606481481 13.438802083333334)"/><path d="M296.95 152.25c0-1.65 1.34-3 3-3h50.78c1.66 0 3 1.35 3 3v20.58c0 1.66-1.34 3-3 3h-50.78c-1.66 0-3-1.34-3-3z" stroke="#000" stroke-width="2" fill="#c7e8ac"/><use xlink:href="#f" transform="matrix(1,0,0,1,301.94569510804683,154.25385512892217) translate(0.967809606481481 13.438802083333334)"/><path d="M164.92 100.73h39.95v20h-39.95z" fill="#fff" fill-opacity="0"/><use xlink:href="#g" transform="matrix(1,0,0,1,169.92293796415814,105.72735877522572) translate(4.9658203125 10.313585069444445)"/><path d="M168.58 136H248v20h-79.42z" fill="#fff" fill-opacity="0"/><use xlink:href="#h" transform="matrix(1,0,0,1,173.58304745982196,140.99999999999997) translate(1.552734375 10.313585069444445)"/><defs><path d="M616-991c-93 0-161 39-212 109-92 126-92 520 0 646 52 70 119 109 212 109 94 0 161-39 213-109 93-126 92-520 0-646-52-70-119-109-213-109zM137-559c0-353 146-588 479-588s480 235 480 588c0 355-145 588-480 588-334 0-479-234-479-588" id="i"/><path d="M711-1147c253 0 340 178 340 453V0H866v-694c-1-183-51-293-219-293-189 0-268 148-268 354V0H195v-1120h184v168c60-118 165-195 332-195" id="j"/><path d="M651-1147c298 0 466 229 461 541v90H315c-4 242 129 392 365 389 156-2 268-51 389-113v183C949-8 828 27 678 29c-351 3-555-232-555-588 0-338 200-588 528-588zm277 487c-4-201-91-331-285-331-193 0-305 144-321 332" id="k"/><g id="a"><use transform="matrix(0.008680555555555556,0,0,0.008680555555555556,0,0)" xlink:href="#i"/><use transform="matrix(0.008680555555555556,0,0,0.008680555555555556,10.703125,0)" xlink:href="#j"/><use transform="matrix(0.008680555555555556,0,0,0.008680555555555556,21.40625,0)" xlink:href="#k"/></g><path d="M807 0C529-4 430-92 430-369v-608H131v-143h299v-318h184v318h418v143H614v608c2 165 49 222 211 222h207V0H807" id="l"/><path d="M0-1120h182l195 905 160-578h157l162 578 195-905h182L971 0H795L616-614 438 0H262" id="m"/><g id="b"><use transform="matrix(0.008680555555555556,0,0,0.008680555555555556,0,0)" xlink:href="#l"/><use transform="matrix(0.008680555555555556,0,0,0.008680555555555556,10.703125,0)" xlink:href="#m"/><use transform="matrix(0.008680555555555556,0,0,0.008680555555555556,21.40625,0)" xlink:href="#i"/></g><path d="M674 29c-147 0-246-68-299-170v567H190v-1546h185v143c55-101 152-170 299-170 300 0 434 263 434 592 0 325-137 584-434 584zm174-265c87-125 87-521 0-646-48-70-112-109-201-109s-154 38-203 109c-89 127-89 518 0 645 49 71 114 110 203 110s153-39 201-109" id="n"/><path d="M471-1147c112 0 171 55 205 141 41-85 99-141 213-141 90 0 154 35 191 105s55 200 55 393V0H967v-641c0-158-12-256-27-295-31-81-176-72-206 4-17 42-29 138-29 291V0H537v-641c0-160-10-259-29-296s-53-56-102-56-83 20-102 61-28 138-28 291V0H109v-1120h167v96c38-70 97-123 195-123" id="o"/><path d="M559-1147c146 0 246 68 299 170v-579h184V0H858v-141C803-40 706 29 559 29c-300 0-436-264-436-592 0-325 139-584 436-584zM385-882c-81 129-87 521 0 646 49 70 112 109 201 109s152-39 202-110c89-127 83-514 0-645-88-139-315-140-403 0" id="p"/><g id="c"><use transform="matrix(0.008680555555555556,0,0,0.008680555555555556,0,0)" xlink:href="#k"/><use transform="matrix(0.008680555555555556,0,0,0.008680555555555556,10.703125,0)" xlink:href="#n"/><use transform="matrix(0.008680555555555556,0,0,0.008680555555555556,21.40625,0)" xlink:href="#o"/><use transform="matrix(0.008680555555555556,0,0,0.008680555555555556,32.109375,0)" xlink:href="#p"/></g><path d="M489-1063h252v303H489v-303zm0 758h252V0H489v-305" id="q"/><path d="M735-1309L264-520h471v-789zm-33-184h234v973h199v164H936V0H735v-356H102v-191" id="r"/><path d="M1044-1120c-1 183-111 281-268 321 181 46 302 172 303 387 1 289-218 445-522 441-155-2-297-31-420-74v-201c118 61 239 103 398 105 208 2 343-93 344-291 1-181-141-287-330-283H395v-166h154c169 2 295-74 295-231 0-161-111-239-279-238-146 2-264 35-383 80v-186c132-34 244-61 383-64 268-6 481 146 479 400" id="s"/><path d="M700-1520c110 1 208 25 291 60v186c-76-45-168-75-282-76-128 0-225 48-291 144s-99 239-99 426c56-120 164-206 328-207 298-2 453 200 453 508 0 310-163 509-465 508-173 0-300-63-381-187S133-478 133-745c0-252 48-445 145-577s238-198 422-198zM901-479c0-212-74-350-270-350-186 0-277 151-277 350s91 350 277 350c196 0 271-139 270-350" id="t"/><path d="M326-1012c0 212 72 350 270 350 186 0 276-151 276-350s-90-350-276-350c-196 0-271 139-270 350zM526 29C417 28 318 4 236-31v-186c76 45 168 75 282 76 128 0 224-49 290-145s99-238 99-425c-55 120-164 206-327 207-299 2-453-201-453-510 0-310 162-507 465-506 173 0 300 62 381 187s121 321 121 588c0 251-49 443-146 575S711 29 526 29" id="u"/><g id="d"><use transform="matrix(0.006510416666666667,0,0,0.006510416666666667,0,0)" xlink:href="#q"/><use transform="matrix(0.006510416666666667,0,0,0.006510416666666667,8.02734375,0)" xlink:href="#r"/><use transform="matrix(0.006510416666666667,0,0,0.006510416666666667,16.0546875,0)" xlink:href="#s"/><use transform="matrix(0.006510416666666667,0,0,0.006510416666666667,24.08203125,0)" xlink:href="#t"/><use transform="matrix(0.006510416666666667,0,0,0.006510416666666667,32.109375,0)" xlink:href="#u"/></g><path d="M54-142c48-35 137-8 131 61C196 18 31 33 14-55l32-4c7 23 22 37 52 37 35-1 51-22 54-58 4-55-73-65-99-34H22l8-134h141v27H59" id="v"/><path d="M126-127c33 6 58 20 58 59 0 88-139 92-164 29-3-8-5-16-6-25l32-3c6 27 21 44 54 44 32 0 52-15 52-46 0-38-36-46-79-43v-28c39 1 72-4 72-42 0-27-17-43-46-43-28 0-47 15-49 41l-32-3c6-42 35-63 81-64 48-1 79 21 79 65 0 36-21 52-52 59" id="w"/><path d="M101-251c68 0 85 55 85 127S166 4 100 4C33 4 14-52 14-124c0-73 17-127 87-127zm-1 229c47 0 54-49 54-102s-4-102-53-102c-51 0-55 48-55 102 0 53 5 102 54 102" id="x"/><path d="M134-131c28 9 52 24 51 62-1 50-34 73-85 73S17-19 16-69c0-36 21-54 49-61-75-25-45-126 34-121 46 3 78 18 79 63 0 33-17 51-44 57zm-34-11c31 1 46-15 46-44 0-28-17-43-47-42-29 0-46 13-45 42 1 28 16 44 46 44zm1 122c35 0 51-18 51-52 0-30-18-46-53-46-33 0-51 17-51 47 0 34 19 51 53 51" id="y"/><path d="M101-251c82-7 93 87 43 132L82-64C71-53 59-42 53-27h129V0H18c2-99 128-94 128-182 0-28-16-43-45-43s-46 15-49 41l-32-3c6-41 34-60 81-64" id="z"/><g id="e"><use transform="matrix(0.006510416666666667,0,0,0.006510416666666667,0,0)" xlink:href="#q"/><use transform="matrix(0.03703703703703704,0,0,0.03703703703703704,8.02734375,0)" xlink:href="#v"/><use transform="matrix(0.03703703703703704,0,0,0.03703703703703704,15.434751157407407,0)" xlink:href="#w"/><use transform="matrix(0.03703703703703704,0,0,0.03703703703703704,22.842158564814817,0)" xlink:href="#x"/><use transform="matrix(0.03703703703703704,0,0,0.03703703703703704,30.249565972222225,0)" xlink:href="#y"/><use transform="matrix(0.03703703703703704,0,0,0.03703703703703704,37.65697337962963,0)" xlink:href="#z"/></g><g id="f"><use transform="matrix(0.006510416666666667,0,0,0.006510416666666667,0,0)" xlink:href="#q"/><use transform="matrix(0.03703703703703704,0,0,0.03703703703703704,8.02734375,0)" xlink:href="#v"/><use transform="matrix(0.03703703703703704,0,0,0.03703703703703704,15.434751157407407,0)" xlink:href="#w"/><use transform="matrix(0.03703703703703704,0,0,0.03703703703703704,22.842158564814817,0)" xlink:href="#x"/><use transform="matrix(0.03703703703703704,0,0,0.03703703703703704,30.249565972222225,0)" xlink:href="#y"/><use transform="matrix(0.03703703703703704,0,0,0.03703703703703704,37.65697337962963,0)" xlink:href="#w"/></g><path fill="#666" d="M807 0C529-4 430-92 430-369v-608H131v-143h299v-318h184v318h418v143H614v608c2 165 49 222 211 222h207V0H807" id="A"/><path fill="#666" d="M0-1120h182l195 905 160-578h157l162 578 195-905h182L971 0H795L616-614 438 0H262" id="B"/><path fill="#666" d="M616-991c-93 0-161 39-212 109-92 126-92 520 0 646 52 70 119 109 212 109 94 0 161-39 213-109 93-126 92-520 0-646-52-70-119-109-213-109zM137-559c0-353 146-588 479-588s480 235 480 588c0 355-145 588-480 588-334 0-479-234-479-588" id="C"/><g id="g"><use transform="matrix(0.005425347222222222,0,0,0.005425347222222222,0,0)" xlink:href="#A"/><use transform="matrix(0.005425347222222222,0,0,0.005425347222222222,6.689453125,0)" xlink:href="#B"/><use transform="matrix(0.005425347222222222,0,0,0.005425347222222222,13.37890625,0)" xlink:href="#C"/></g><path fill="#666" d="M674 29c-147 0-246-68-299-170v567H190v-1546h185v143c55-101 152-170 299-170 300 0 434 263 434 592 0 325-137 584-434 584zm174-265c87-125 87-521 0-646-48-70-112-109-201-109s-154 38-203 109c-89 127-89 518 0 645 49 71 114 110 203 110s153-39 201-109" id="D"/><path fill="#666" d="M915-1147c102 0 174 26 240 70v188c-71-55-140-88-254-88-243 0-354 165-354 420V0H362v-1120h185v219c55-146 178-246 368-246" id="E"/><path fill="#666" d="M88-524h1057v172H88v-172zm0-406h1057v170H88v-170" id="F"/><path fill="#666" d="M512-817c-121 1-221 29-305 74v-750h756v170H391v367c52-19 108-31 174-31 306-4 504 201 504 508 0 316-212 508-532 508-154 0-286-20-394-64v-205c109 59 223 97 375 99 219 2 348-121 348-338 0-215-137-340-354-338" id="G"/><path fill="#666" d="M1044-1120c-1 183-111 281-268 321 181 46 302 172 303 387 1 289-218 445-522 441-155-2-297-31-420-74v-201c118 61 239 103 398 105 208 2 343-93 344-291 1-181-141-287-330-283H395v-166h154c169 2 295-74 295-231 0-161-111-239-279-238-146 2-264 35-383 80v-186c132-34 244-61 383-64 268-6 481 146 479 400" id="H"/><path fill="#666" d="M614-616c-74 0-131-59-131-134 0-70 61-135 131-135 72 0 136 64 136 135 0 73-63 134-136 134zm2-744c-94 0-159 53-210 152-88 171-88 754 0 925 51 99 116 152 210 152 95 0 161-53 212-152 88-172 88-754 0-925-51-99-117-152-212-152zm0-160c159 0 280 65 362 196s122 324 122 579-40 447-122 578S775 29 616 29 336-36 255-167 133-490 133-745s41-448 122-579 202-196 361-196" id="I"/><path fill="#666" d="M899-420c0-180-104-289-283-289-180 0-282 108-282 289 0 180 104 291 282 291 182 0 283-107 283-291zm-768 21c0-223 119-354 309-394-157-38-273-156-274-340-1-248 191-387 450-387 260 0 452 139 451 387-1 184-118 303-274 340 189 40 308 170 309 392 1 278-198 430-486 430S130-121 131-399zm485-965c-161 0-249 90-249 250s89 246 249 246c161 0 251-86 250-246 0-163-87-250-250-250" id="J"/><g id="h"><use transform="matrix(0.005425347222222222,0,0,0.005425347222222222,0,0)" xlink:href="#D"/><use transform="matrix(0.005425347222222222,0,0,0.005425347222222222,6.689453125,0)" xlink:href="#C"/><use transform="matrix(0.005425347222222222,0,0,0.005425347222222222,13.37890625,0)" xlink:href="#E"/><use transform="matrix(0.005425347222222222,0,0,0.005425347222222222,20.068359375,0)" xlink:href="#A"/><use transform="matrix(0.005425347222222222,0,0,0.005425347222222222,26.7578125,0)" xlink:href="#F"/><use transform="matrix(0.005425347222222222,0,0,0.005425347222222222,33.447265625,0)" xlink:href="#G"/><use transform="matrix(0.005425347222222222,0,0,0.005425347222222222,40.13671875,0)" xlink:href="#H"/><use transform="matrix(0.005425347222222222,0,0,0.005425347222222222,46.826171875,0)" xlink:href="#I"/><use transform="matrix(0.005425347222222222,0,0,0.005425347222222222,53.515625,0)" xlink:href="#J"/><use transform="matrix(0.005425347222222222,0,0,0.005425347222222222,60.205078125,0)" xlink:href="#H"/></g></defs></g></svg>