<svg xmlns="http://www.w3.org/2000/svg" xmlns:xlink="http://www.w3.org/1999/xlink" xmlns:lucid="lucid" width="588" height="215.71"><g transform="translate(10 9.852574106590609)" lucid:page-tab-id="a_6fIz1C68tC"><path d="M10 21.3c0-5.5 4.48-10 10-10h336.02c5.52 0 10 4.5 10 10v154.55c0 5.53-4.48 10-10 10H20c-5.52 0-10-4.47-10-10zM462.37 21.3c0-5.5 4.48-10 10-10H548c5.52 0 10 4.5 10 10v48.85c0 5.52-4.48 10-10 10h-75.63c-5.52 0-10-4.48-10-10z" stroke="#000" stroke-width="2" fill="#fff"/><path d="M33.03 54.27h309.95v36.66H33.03z" stroke="#000" stroke-width="2" fill="#f9d2de"/><use xlink:href="#a" transform="matrix(1,0,0,1,38.03323149803532,59.265136089655975) translate(0 17.438802083333336)"/><use xlink:href="#b" transform="matrix(1,0,0,1,38.03323149803532,59.265136089655975) translate(152.51953125 17.438802083333336)"/><path d="M33.03 115.22H288v36.67H33.03z" stroke="#000" stroke-width="2" fill="#f9d2de"/><use xlink:href="#c" transform="matrix(1,0,0,1,38.03323149803532,120.22336956444727) translate(0 17.438802083333336)"/><use xlink:href="#d" transform="matrix(1,0,0,1,38.03323149803532,120.22336956444727) translate(96.328125 17.438802083333336)"/><path d="M462.37 10.15h56.78V41.6h-56.78z" fill="#fff" fill-opacity="0"/><use xlink:href="#e" transform="matrix(1,0,0,1,467.36911443265564,15.147425893409391) translate(7.4453125 16.50173611111111)"/><path d="M10 10.15h56.8V41.6H10z" fill="#fff" fill-opacity="0"/><use xlink:href="#f" transform="matrix(1,0,0,1,15,15.147425893409391) translate(7.4453125 16.50173611111111)"/><path d="M290 133.56h83c11.05 0 20-8.96 20-20V65.73c0-11.05 8.95-20 20-20h29.87" stroke="#000" stroke-width="2" fill="none"/><path d="M290.03 134.56H289v-2h1.03z"/><path d="M458.13 45.73l-14.26 4.63V41.1z" stroke="#000" stroke-width="2"/><defs><path d="M717-39c6 195 31 223 225 229h70v144h-64c-326-9-410-53-418-369v-239c4-224-82-275-309-267v-143h62c196-4 247-65 247-264v-240c8-316 92-359 418-368h64v143h-70c-193 6-225 35-225 229v248c-2 202-44 284-201 324 157 42 201 122 201 325v248" id="g"/><path d="M702-1493v555H528v-555h174" id="h"/><path d="M197-1493h886v170H399v442h654v170H399v541h703V0H197v-1493" id="i"/><path d="M801 0C570 0 455-164 455-406v-1017H160v-144h479v1161c0 147 46 250 180 250h215V0H801" id="j"/><path d="M256-1120h471v977h365V0H178v-143h365v-834H256v-143zm287-436h184v233H543v-233" id="k"/><path d="M1118-1120L717-584 1157 0H944L616-449 289 0H76l440-584-401-536h204l297 405 295-405h207" id="l"/><path d="M915-1147c102 0 174 26 240 70v188c-71-55-140-88-254-88-243 0-354 165-354 420V0H362v-1120h185v219c55-146 178-246 368-246" id="m"/><path d="M489-305h252V0H489v-305" id="n"/><path d="M201-1493h829v170H717v1153h313V0H201v-170h313v-1153H201v-170" id="o"/><path d="M743-135c139 0 246-55 330-125v207C978-3 879 29 743 29c-415 0-604-328-604-774 0-244 53-435 159-571s255-204 445-204c135 1 236 32 330 82v207c-84-70-192-125-330-125-131 0-224 54-295 152-125 174-126 743 0 917 71 98 164 152 295 152" id="p"/><path d="M215-1493h203v1323h721V0H215v-1493" id="q"/><path d="M502-303h252v207L557 287H403l99-383v-207" id="r"/><g id="a"><use transform="matrix(0.006510416666666667,0,0,0.006510416666666667,0,0)" xlink:href="#g"/><use transform="matrix(0.006510416666666667,0,0,0.006510416666666667,8.02734375,0)" xlink:href="#h"/><use transform="matrix(0.006510416666666667,0,0,0.006510416666666667,16.0546875,0)" xlink:href="#i"/><use transform="matrix(0.006510416666666667,0,0,0.006510416666666667,24.08203125,0)" xlink:href="#j"/><use transform="matrix(0.006510416666666667,0,0,0.006510416666666667,32.109375,0)" xlink:href="#k"/><use transform="matrix(0.006510416666666667,0,0,0.006510416666666667,40.13671875,0)" xlink:href="#l"/><use transform="matrix(0.006510416666666667,0,0,0.006510416666666667,48.1640625,0)" xlink:href="#k"/><use transform="matrix(0.006510416666666667,0,0,0.006510416666666667,56.19140625,0)" xlink:href="#m"/><use transform="matrix(0.006510416666666667,0,0,0.006510416666666667,64.21875,0)" xlink:href="#n"/><use transform="matrix(0.006510416666666667,0,0,0.006510416666666667,72.24609375,0)" xlink:href="#o"/><use transform="matrix(0.006510416666666667,0,0,0.006510416666666667,80.2734375,0)" xlink:href="#i"/><use transform="matrix(0.006510416666666667,0,0,0.006510416666666667,88.30078125,0)" xlink:href="#l"/><use transform="matrix(0.006510416666666667,0,0,0.006510416666666667,96.328125,0)" xlink:href="#n"/><use transform="matrix(0.006510416666666667,0,0,0.006510416666666667,104.35546875,0)" xlink:href="#p"/><use transform="matrix(0.006510416666666667,0,0,0.006510416666666667,112.3828125,0)" xlink:href="#q"/><use transform="matrix(0.006510416666666667,0,0,0.006510416666666667,120.41015625,0)" xlink:href="#o"/><use transform="matrix(0.006510416666666667,0,0,0.006510416666666667,128.4375,0)" xlink:href="#h"/><use transform="matrix(0.006510416666666667,0,0,0.006510416666666667,136.46484375,0)" xlink:href="#r"/></g><path d="M616-991c-93 0-161 39-212 109-92 126-92 520 0 646 52 70 119 109 212 109 94 0 161-39 213-109 93-126 92-520 0-646-52-70-119-109-213-109zM137-559c0-353 146-588 479-588s480 235 480 588c0 355-145 588-480 588-334 0-479-234-479-588" id="s"/><path d="M748-127c144 0 233-46 313-121v191C974-6 875 28 748 29c-351 3-553-232-553-588 0-357 202-591 553-588 129 2 222 35 313 86v193c-88-76-165-123-313-123-245 0-359 174-359 432 0 257 115 432 359 432" id="t"/><path d="M547-125c229-2 340-186 327-438H641c-189 0-321 55-324 225-3 137 91 215 230 213zm-332-944c167-71 431-115 615-37 106 45 186 120 213 246 11 49 16 123 16 221V0H874v-166C800-42 695 26 508 29c-220 3-378-138-375-355 4-274 199-382 494-381h247c6-204-80-285-282-284-149 1-272 46-377 106v-184" id="u"/><path d="M1233 403v80H0v-80h1233" id="v"/><path d="M637-1147c132 1 237 25 336 66v180c-92-53-190-92-322-92-145 0-248 35-248 164 0 50 15 87 46 112 23 30 197 67 303 86 166 30 278 123 278 307 0 239-191 356-446 353-140-2-251-31-371-70v-190c114 58 228 103 375 106 145 3 253-56 256-188 3-87-90-149-253-179-210-38-374-93-374-319 0-232 173-338 420-336" id="w"/><path d="M807 0C529-4 430-92 430-369v-608H131v-143h299v-318h184v318h418v143H614v608c2 165 49 222 211 222h207V0H807" id="x"/><path d="M700-35c-8 316-91 360-417 369h-62V190h68c194-6 227-35 227-229v-248c2-203 44-283 201-325-157-40-201-122-201-324v-248c-6-194-33-223-227-229h-68v-143h62c326 9 409 52 417 368v240c-5 225 84 272 312 264v143h-64c-196 4-248 67-248 267v239" id="y"/><g id="b"><use transform="matrix(0.006510416666666667,0,0,0.006510416666666667,0,0)" xlink:href="#j"/><use transform="matrix(0.006510416666666667,0,0,0.006510416666666667,8.02734375,0)" xlink:href="#s"/><use transform="matrix(0.006510416666666667,0,0,0.006510416666666667,16.0546875,0)" xlink:href="#t"/><use transform="matrix(0.006510416666666667,0,0,0.006510416666666667,24.08203125,0)" xlink:href="#u"/><use transform="matrix(0.006510416666666667,0,0,0.006510416666666667,32.109375,0)" xlink:href="#j"/><use transform="matrix(0.006510416666666667,0,0,0.006510416666666667,40.13671875,0)" xlink:href="#v"/><use transform="matrix(0.006510416666666667,0,0,0.006510416666666667,48.1640625,0)" xlink:href="#w"/><use transform="matrix(0.006510416666666667,0,0,0.006510416666666667,56.19140625,0)" xlink:href="#x"/><use transform="matrix(0.006510416666666667,0,0,0.006510416666666667,64.21875,0)" xlink:href="#u"/><use transform="matrix(0.006510416666666667,0,0,0.006510416666666667,72.24609375,0)" xlink:href="#m"/><use transform="matrix(0.006510416666666667,0,0,0.006510416666666667,80.2734375,0)" xlink:href="#x"/><use transform="matrix(0.006510416666666667,0,0,0.006510416666666667,88.30078125,0)" xlink:href="#y"/></g><path d="M489-1063h252v303H489v-303zm0 758h252V0H489v-305" id="z"/><path d="M0-1120h182l195 905 160-578h157l162 578 195-905h182L971 0H795L616-614 438 0H262" id="A"/><path d="M803-260c151 0 235-126 235-285 0-158-85-284-235-284S567-703 567-545c0 159 85 285 236 285zm-84-1135c281-1 459 203 459 490v770h-144v-111c-44 78-133 130-250 131-221 2-372-198-372-430s150-432 372-430c113 1 208 56 250 131v-63c4-199-126-346-321-346-164 0-294 63-391 191S176-761 176-543c0 405 220 720 604 719 84-1 152-16 219-41l48 135c-73 29-151 48-244 49C316 323 27-41 27-543c0-476 244-850 692-852" id="B"/><path d="M471-1147c112 0 171 55 205 141 41-85 99-141 213-141 90 0 154 35 191 105s55 200 55 393V0H967v-641c0-158-12-256-27-295-31-81-176-72-206 4-17 42-29 138-29 291V0H537v-641c0-160-10-259-29-296s-53-56-102-56-83 20-102 61-28 138-28 291V0H109v-1120h167v96c38-70 97-123 195-123" id="C"/><path d="M850-236c87-126 87-521 0-646-49-70-112-109-201-109s-154 38-203 109c-89 127-89 518 0 645 49 71 114 110 203 110s152-39 201-109zM676 29c-146 0-244-69-299-170V0H193v-1556h184v579c53-101 154-170 301-170 297 0 434 260 434 584 0 329-136 592-436 592" id="D"/><path d="M674 29c-147 0-246-68-299-170v567H190v-1546h185v143c55-101 152-170 299-170 300 0 434 263 434 592 0 325-137 584-434 584zm174-265c87-125 87-521 0-646-48-70-112-109-201-109s-154 38-203 109c-89 127-89 518 0 645 49 71 114 110 203 110s153-39 201-109" id="E"/><g id="c"><use transform="matrix(0.006510416666666667,0,0,0.006510416666666667,0,0)" xlink:href="#g"/><use transform="matrix(0.006510416666666667,0,0,0.006510416666666667,8.02734375,0)" xlink:href="#z"/><use transform="matrix(0.006510416666666667,0,0,0.006510416666666667,16.0546875,0)" xlink:href="#x"/><use transform="matrix(0.006510416666666667,0,0,0.006510416666666667,24.08203125,0)" xlink:href="#A"/><use transform="matrix(0.006510416666666667,0,0,0.006510416666666667,32.109375,0)" xlink:href="#s"/><use transform="matrix(0.006510416666666667,0,0,0.006510416666666667,40.13671875,0)" xlink:href="#B"/><use transform="matrix(0.006510416666666667,0,0,0.006510416666666667,48.1640625,0)" xlink:href="#t"/><use transform="matrix(0.006510416666666667,0,0,0.006510416666666667,56.19140625,0)" xlink:href="#C"/><use transform="matrix(0.006510416666666667,0,0,0.006510416666666667,64.21875,0)" xlink:href="#D"/><use transform="matrix(0.006510416666666667,0,0,0.006510416666666667,72.24609375,0)" xlink:href="#E"/><use transform="matrix(0.006510416666666667,0,0,0.006510416666666667,80.2734375,0)" xlink:href="#r"/></g><g id="d"><use transform="matrix(0.006510416666666667,0,0,0.006510416666666667,0,0)" xlink:href="#h"/><use transform="matrix(0.006510416666666667,0,0,0.006510416666666667,8.02734375,0)" xlink:href="#i"/><use transform="matrix(0.006510416666666667,0,0,0.006510416666666667,16.0546875,0)" xlink:href="#j"/><use transform="matrix(0.006510416666666667,0,0,0.006510416666666667,24.08203125,0)" xlink:href="#k"/><use transform="matrix(0.006510416666666667,0,0,0.006510416666666667,32.109375,0)" xlink:href="#l"/><use transform="matrix(0.006510416666666667,0,0,0.006510416666666667,40.13671875,0)" xlink:href="#k"/><use transform="matrix(0.006510416666666667,0,0,0.006510416666666667,48.1640625,0)" xlink:href="#m"/><use transform="matrix(0.006510416666666667,0,0,0.006510416666666667,56.19140625,0)" xlink:href="#n"/><use transform="matrix(0.006510416666666667,0,0,0.006510416666666667,64.21875,0)" xlink:href="#o"/><use transform="matrix(0.006510416666666667,0,0,0.006510416666666667,72.24609375,0)" xlink:href="#i"/><use transform="matrix(0.006510416666666667,0,0,0.006510416666666667,80.2734375,0)" xlink:href="#l"/><use transform="matrix(0.006510416666666667,0,0,0.006510416666666667,88.30078125,0)" xlink:href="#h"/><use transform="matrix(0.006510416666666667,0,0,0.006510416666666667,96.328125,0)" xlink:href="#y"/></g><g id="e"><use transform="matrix(0.008680555555555556,0,0,0.008680555555555556,0,0)" xlink:href="#x"/><use transform="matrix(0.008680555555555556,0,0,0.008680555555555556,10.703125,0)" xlink:href="#A"/><use transform="matrix(0.008680555555555556,0,0,0.008680555555555556,21.40625,0)" xlink:href="#s"/></g><path d="M711-1147c253 0 340 178 340 453V0H866v-694c-1-183-51-293-219-293-189 0-268 148-268 354V0H195v-1120h184v168c60-118 165-195 332-195" id="F"/><path d="M651-1147c298 0 466 229 461 541v90H315c-4 242 129 392 365 389 156-2 268-51 389-113v183C949-8 828 27 678 29c-351 3-555-232-555-588 0-338 200-588 528-588zm277 487c-4-201-91-331-285-331-193 0-305 144-321 332" id="G"/><g id="f"><use transform="matrix(0.008680555555555556,0,0,0.008680555555555556,0,0)" xlink:href="#s"/><use transform="matrix(0.008680555555555556,0,0,0.008680555555555556,10.703125,0)" xlink:href="#F"/><use transform="matrix(0.008680555555555556,0,0,0.008680555555555556,21.40625,0)" xlink:href="#G"/></g></defs></g></svg>