<svg xmlns="http://www.w3.org/2000/svg" xmlns:xlink="http://www.w3.org/1999/xlink" xmlns:lucid="lucid" width="375.46" height="141.51"><g transform="translate(10.459888821289496 10.00000000000005)" lucid:page-tab-id="K.6fKVkmUhZm"><path d="M14.07 23.28c0-5.52 4.48-10 10-10h160c5.52 0 10 4.48 10 10v77.65c0 5.52-4.48 10-10 10h-160c-5.52 0-10-4.48-10-10zM254.07 23.86c0-5.52 4.48-10 10-10H335c5.52 0 10 4.48 10 10v77.65c0 5.53-4.48 10-10 10h-70.93c-5.52 0-10-4.47-10-10z" stroke="#000" stroke-width="2" fill="#fff"/><path d="M29.1 43.77h146.2v36.67H29.1z" stroke="#000" stroke-width="2" fill="#f9d2de"/><use xlink:href="#a" transform="matrix(1,0,0,1,34.10533271700103,48.7696714359868) translate(2.943359375 19.50151909722222)"/><path d="M248.9 10h56.8v31.45h-56.8z" fill="#fff" fill-opacity="0"/><use xlink:href="#b" transform="matrix(1,0,0,1,253.90616520982672,14.99999999999995) translate(7.4453125 16.50173611111111)"/><path d="M9.54 10h56.8v31.45H9.53z" fill="#fff" fill-opacity="0"/><use xlink:href="#c" transform="matrix(1,0,0,1,14.540111178710504,14.99999999999995) translate(7.4453125 16.50173611111111)"/><path d="M177.3 62.1H234.58" stroke="#000" stroke-width="2" fill="none"/><path d="M177.33 63.1h-1.02v-2h1.03z"/><path d="M249.84 62.1l-14.27 4.64v-9.27z" stroke="#000" stroke-width="2"/><defs><path d="M256-1120h471v977h365V0H178v-143h365v-834H256v-143zm287-436h184v233H543v-233" id="d"/><path d="M651-1147c298 0 466 229 461 541v90H315c-4 242 129 392 365 389 156-2 268-51 389-113v183C949-8 828 27 678 29c-351 3-555-232-555-588 0-338 200-588 528-588zm277 487c-4-201-91-331-285-331-193 0-305 144-321 332" id="e"/><path d="M1118-1120L717-584 1157 0H944L616-449 289 0H76l440-584-401-536h204l297 405 295-405h207" id="f"/><path d="M426-643c0-377 131-645 299-911h160c-153 264-264 539-264 911 0 371 112 648 264 913H725C557 0 426-263 426-643" id="g"/><path d="M807 0C529-4 430-92 430-369v-608H131v-143h299v-318h184v318h418v143H614v608c2 165 49 222 211 222h207V0H807" id="h"/><path d="M0-1120h182l195 905 160-578h157l162 578 195-905h182L971 0H795L616-614 438 0H262" id="i"/><path d="M616-991c-93 0-161 39-212 109-92 126-92 520 0 646 52 70 119 109 212 109 94 0 161-39 213-109 93-126 92-520 0-646-52-70-119-109-213-109zM137-559c0-353 146-588 479-588s480 235 480 588c0 355-145 588-480 588-334 0-479-234-479-588" id="j"/><path d="M803-260c151 0 235-126 235-285 0-158-85-284-235-284S567-703 567-545c0 159 85 285 236 285zm-84-1135c281-1 459 203 459 490v770h-144v-111c-44 78-133 130-250 131-221 2-372-198-372-430s150-432 372-430c113 1 208 56 250 131v-63c4-199-126-346-321-346-164 0-294 63-391 191S176-761 176-543c0 405 220 720 604 719 84-1 152-16 219-41l48 135c-73 29-151 48-244 49C316 323 27-41 27-543c0-476 244-850 692-852" id="k"/><path d="M748-127c144 0 233-46 313-121v191C974-6 875 28 748 29c-351 3-553-232-553-588 0-357 202-591 553-588 129 2 222 35 313 86v193c-88-76-165-123-313-123-245 0-359 174-359 432 0 257 115 432 359 432" id="l"/><path d="M471-1147c112 0 171 55 205 141 41-85 99-141 213-141 90 0 154 35 191 105s55 200 55 393V0H967v-641c0-158-12-256-27-295-31-81-176-72-206 4-17 42-29 138-29 291V0H537v-641c0-160-10-259-29-296s-53-56-102-56-83 20-102 61-28 138-28 291V0H109v-1120h167v96c38-70 97-123 195-123" id="m"/><path d="M850-236c87-126 87-521 0-646-49-70-112-109-201-109s-154 38-203 109c-89 127-89 518 0 645 49 71 114 110 203 110s152-39 201-109zM676 29c-146 0-244-69-299-170V0H193v-1556h184v579c53-101 154-170 301-170 297 0 434 260 434 584 0 329-136 592-436 592" id="n"/><path d="M674 29c-147 0-246-68-299-170v567H190v-1546h185v143c55-101 152-170 299-170 300 0 434 263 434 592 0 325-137 584-434 584zm174-265c87-125 87-521 0-646-48-70-112-109-201-109s-154 38-203 109c-89 127-89 518 0 645 49 71 114 110 203 110s153-39 201-109" id="o"/><path d="M612-643c0-370-112-648-264-911h160c168 267 299 533 299 911 0 379-131 646-299 913H348C499 3 612-272 612-643" id="p"/><path d="M88-961v-182l1057 418v166L88-141v-183l850-317" id="q"/><g id="a"><use transform="matrix(0.007595486111111111,0,0,0.007595486111111111,0,0)" xlink:href="#d"/><use transform="matrix(0.007595486111111111,0,0,0.007595486111111111,9.365234375,0)" xlink:href="#e"/><use transform="matrix(0.007595486111111111,0,0,0.007595486111111111,18.73046875,0)" xlink:href="#f"/><use transform="matrix(0.007595486111111111,0,0,0.007595486111111111,28.095703125,0)" xlink:href="#g"/><use transform="matrix(0.007595486111111111,0,0,0.007595486111111111,37.4609375,0)" xlink:href="#h"/><use transform="matrix(0.007595486111111111,0,0,0.007595486111111111,46.826171875,0)" xlink:href="#i"/><use transform="matrix(0.007595486111111111,0,0,0.007595486111111111,56.19140625,0)" xlink:href="#j"/><use transform="matrix(0.007595486111111111,0,0,0.007595486111111111,65.556640625,0)" xlink:href="#k"/><use transform="matrix(0.007595486111111111,0,0,0.007595486111111111,74.921875,0)" xlink:href="#l"/><use transform="matrix(0.007595486111111111,0,0,0.007595486111111111,84.287109375,0)" xlink:href="#m"/><use transform="matrix(0.007595486111111111,0,0,0.007595486111111111,93.65234375,0)" xlink:href="#n"/><use transform="matrix(0.007595486111111111,0,0,0.007595486111111111,103.017578125,0)" xlink:href="#o"/><use transform="matrix(0.007595486111111111,0,0,0.007595486111111111,112.3828125,0)" xlink:href="#p"/><use transform="matrix(0.007595486111111111,0,0,0.007595486111111111,121.748046875,0)" xlink:href="#q"/></g><g id="b"><use transform="matrix(0.008680555555555556,0,0,0.008680555555555556,0,0)" xlink:href="#h"/><use transform="matrix(0.008680555555555556,0,0,0.008680555555555556,10.703125,0)" xlink:href="#i"/><use transform="matrix(0.008680555555555556,0,0,0.008680555555555556,21.40625,0)" xlink:href="#j"/></g><path d="M711-1147c253 0 340 178 340 453V0H866v-694c-1-183-51-293-219-293-189 0-268 148-268 354V0H195v-1120h184v168c60-118 165-195 332-195" id="r"/><g id="c"><use transform="matrix(0.008680555555555556,0,0,0.008680555555555556,0,0)" xlink:href="#j"/><use transform="matrix(0.008680555555555556,0,0,0.008680555555555556,10.703125,0)" xlink:href="#r"/><use transform="matrix(0.008680555555555556,0,0,0.008680555555555556,21.40625,0)" xlink:href="#e"/></g></defs></g></svg>