<svg xmlns="http://www.w3.org/2000/svg" xmlns:xlink="http://www.w3.org/1999/xlink" xmlns:lucid="lucid" width="668.83" height="162.57"><g transform="translate(10 10)" lucid:page-tab-id="fHYfZUU5VZof"><path d="M10.52 20c0-5.52 4.48-10 10-10h130c5.52 0 10 4.48 10 10v102.57c0 5.53-4.48 10-10 10h-130c-5.52 0-10-4.47-10-10zM300.93 20c0-5.52 4.48-10 10-10h317.9c5.53 0 10 4.48 10 10v102.57c0 5.53-4.47 10-10 10h-317.9c-5.52 0-10-4.47-10-10z" stroke="#000" stroke-width="2" fill="#fff"/><path d="M32.25 52.95H138.8v36.67H32.24z" stroke="#000" stroke-width="2" fill="#f9d2de"/><use xlink:href="#a" transform="matrix(1,0,0,1,37.25305432328881,57.95402248138644) translate(27.09375 19.87673611111111)"/><path d="M503.12 52.95h106.53v36.67H503.12z" stroke="#000" stroke-width="2" fill="#ffeca9"/><use xlink:href="#b" transform="matrix(1,0,0,1,508.12281761048956,57.95402248138644) translate(21.7421875 19.87673611111111)"/><path d="M328.02 52.95h137.82v36.67H328.02z" stroke="#000" stroke-width="2" fill="#f9d2de"/><use xlink:href="#c" transform="matrix(1,0,0,1,333.01779632701255,57.95402248138644) translate(5.1328125 19.87673611111111)"/><path d="M10 11.3h56.8v31.46H10z" fill="#fff" fill-opacity="0"/><use xlink:href="#d" transform="matrix(1,0,0,1,15,16.307825904009356) translate(7.4453125 16.50173611111111)"/><path d="M179.22 72.3H140.8v-2h38.42zm129.3 0H287.6v-2h20.92zM140.8 72.3h-1v-2h1zM323.78 71.3l-14.26 4.62v-9.27z"/><path d="M327.02 71.3l-18.5 6V65.28zm-16.5 3.25l10.03-3.26-10.03-3.27z"/><use xlink:href="#e" transform="matrix(1,0,0,1,179.21685001265067,60.810793314719774) translate(0 16.7080078125)"/><path d="M467.84 71.3h15.78" stroke="#000" stroke-width="2" fill="none"/><path d="M467.87 72.3h-1.03v-2h1.03z"/><path d="M498.9 71.3L484.6 75.9v-9.27z" stroke="#000" stroke-width="2"/><path d="M300.93 11.3h56.78v31.46h-56.77z" fill="#fff" fill-opacity="0"/><use xlink:href="#f" transform="matrix(1,0,0,1,305.9278987810343,16.307825904009356) translate(7.4453125 16.50173611111111)"/><defs><path d="M256-1120h471v977h365V0H178v-143h365v-834H256v-143zm287-436h184v233H543v-233" id="g"/><path d="M651-1147c298 0 466 229 461 541v90H315c-4 242 129 392 365 389 156-2 268-51 389-113v183C949-8 828 27 678 29c-351 3-555-232-555-588 0-338 200-588 528-588zm277 487c-4-201-91-331-285-331-193 0-305 144-321 332" id="h"/><path d="M1118-1120L717-584 1157 0H944L616-449 289 0H76l440-584-401-536h204l297 405 295-405h207" id="i"/><path d="M88-961v-182l1057 418v166L88-141v-183l850-317" id="j"/><g id="a"><use transform="matrix(0.008680555555555556,0,0,0.008680555555555556,0,0)" xlink:href="#g"/><use transform="matrix(0.008680555555555556,0,0,0.008680555555555556,10.703125,0)" xlink:href="#h"/><use transform="matrix(0.008680555555555556,0,0,0.008680555555555556,21.40625,0)" xlink:href="#i"/><use transform="matrix(0.008680555555555556,0,0,0.008680555555555556,32.109375,0)" xlink:href="#j"/></g><path d="M137-1493h203v612h553v-612h203V0H893v-711H340V0H137v-1493" id="k"/><path d="M801 0C570 0 455-164 455-406v-1017H160v-144h479v1161c0 147 46 250 180 250h215V0H801" id="l"/><path d="M616-991c-93 0-161 39-212 109-92 126-92 520 0 646 52 70 119 109 212 109 94 0 161-39 213-109 93-126 92-520 0-646-52-70-119-109-213-109zM137-559c0-353 146-588 479-588s480 235 480 588c0 355-145 588-480 588-334 0-479-234-479-588" id="m"/><g id="b"><use transform="matrix(0.008680555555555556,0,0,0.008680555555555556,0,0)" xlink:href="#k"/><use transform="matrix(0.008680555555555556,0,0,0.008680555555555556,10.703125,0)" xlink:href="#h"/><use transform="matrix(0.008680555555555556,0,0,0.008680555555555556,21.40625,0)" xlink:href="#l"/><use transform="matrix(0.008680555555555556,0,0,0.008680555555555556,32.109375,0)" xlink:href="#l"/><use transform="matrix(0.008680555555555556,0,0,0.008680555555555556,42.8125,0)" xlink:href="#m"/></g><path d="M684-1470l-104 415h245l105-415h160l-105 415h244v154H948l-84 334h250v153H825L721 0H561l105-414H420L315 0H156l104-414H2v-153h297l84-334H117v-154h303l104-415h160zm104 569H543l-84 334h246" id="n"/><path d="M1145-961L295-641l850 317v183L88-559v-166l1057-418v182" id="o"/><path d="M270-170h314v-1141l-338 76v-184l336-74h202v1323h310V0H270v-170" id="p"/><path d="M563-1520c272-5 493 161 486 422-5 184-82 278-189 404-156 183-266 291-487 524h686V0H152v-170c181-191 381-399 520-561 68-80 112-147 135-197s35-102 35-155c2-166-108-271-275-267-164 4-280 61-403 133v-204c119-56 242-96 399-99" id="q"/><path d="M489-305h252V0H489v-305" id="r"/><g id="c"><use transform="matrix(0.008680555555555556,0,0,0.008680555555555556,0,0)" xlink:href="#n"/><use transform="matrix(0.008680555555555556,0,0,0.008680555555555556,10.703125,0)" xlink:href="#o"/><use transform="matrix(0.008680555555555556,0,0,0.008680555555555556,21.40625,0)" xlink:href="#p"/><use transform="matrix(0.008680555555555556,0,0,0.008680555555555556,32.109375,0)" xlink:href="#q"/><use transform="matrix(0.008680555555555556,0,0,0.008680555555555556,42.8125,0)" xlink:href="#r"/><use transform="matrix(0.008680555555555556,0,0,0.008680555555555556,53.515625,0)" xlink:href="#p"/><use transform="matrix(0.008680555555555556,0,0,0.008680555555555556,64.21875,0)" xlink:href="#q"/><use transform="matrix(0.008680555555555556,0,0,0.008680555555555556,74.921875,0)" xlink:href="#r"/><use transform="matrix(0.008680555555555556,0,0,0.008680555555555556,85.625,0)" xlink:href="#p"/><use transform="matrix(0.008680555555555556,0,0,0.008680555555555556,96.328125,0)" xlink:href="#q"/><use transform="matrix(0.008680555555555556,0,0,0.008680555555555556,107.03125,0)" xlink:href="#j"/></g><path d="M711-1147c253 0 340 178 340 453V0H866v-694c-1-183-51-293-219-293-189 0-268 148-268 354V0H195v-1120h184v168c60-118 165-195 332-195" id="s"/><g id="d"><use transform="matrix(0.008680555555555556,0,0,0.008680555555555556,0,0)" xlink:href="#m"/><use transform="matrix(0.008680555555555556,0,0,0.008680555555555556,10.703125,0)" xlink:href="#s"/><use transform="matrix(0.008680555555555556,0,0,0.008680555555555556,21.40625,0)" xlink:href="#h"/></g><path d="M637-1147c132 1 237 25 336 66v180c-92-53-190-92-322-92-145 0-248 35-248 164 0 50 15 87 46 112 23 30 197 67 303 86 166 30 278 123 278 307 0 239-191 356-446 353-140-2-251-31-371-70v-190c114 58 228 103 375 106 145 3 253-56 256-188 3-87-90-149-253-179-210-38-374-93-374-319 0-232 173-338 420-336" id="t"/><path d="M674 29c-147 0-246-68-299-170v567H190v-1546h185v143c55-101 152-170 299-170 300 0 434 263 434 592 0 325-137 584-434 584zm174-265c87-125 87-521 0-646-48-70-112-109-201-109s-154 38-203 109c-89 127-89 518 0 645 49 71 114 110 203 110s153-39 201-109" id="u"/><path d="M547-125c229-2 340-186 327-438H641c-189 0-321 55-324 225-3 137 91 215 230 213zm-332-944c167-71 431-115 615-37 106 45 186 120 213 246 11 49 16 123 16 221V0H874v-166C800-42 695 26 508 29c-220 3-378-138-375-355 4-274 199-382 494-381h247c6-204-80-285-282-284-149 1-272 46-377 106v-184" id="v"/><path d="M0-1120h182l195 905 160-578h157l162 578 195-905h182L971 0H795L616-614 438 0H262" id="w"/><path d="M1233 403v80H0v-80h1233" id="x"/><path d="M236-1556h190v901l483-465h224L692-698 1202 0H977L563-578 426-449V0H236v-1556" id="y"/><g id="e"><use transform="matrix(0.0087890625,0,0,0.0087890625,0,0)" xlink:href="#t"/><use transform="matrix(0.0087890625,0,0,0.0087890625,10.8369140625,0)" xlink:href="#u"/><use transform="matrix(0.0087890625,0,0,0.0087890625,21.673828125,0)" xlink:href="#v"/><use transform="matrix(0.0087890625,0,0,0.0087890625,32.5107421875,0)" xlink:href="#w"/><use transform="matrix(0.0087890625,0,0,0.0087890625,43.34765625,0)" xlink:href="#s"/><use transform="matrix(0.0087890625,0,0,0.0087890625,54.1845703125,0)" xlink:href="#x"/><use transform="matrix(0.0087890625,0,0,0.0087890625,65.021484375,0)" xlink:href="#l"/><use transform="matrix(0.0087890625,0,0,0.0087890625,75.8583984375,0)" xlink:href="#g"/><use transform="matrix(0.0087890625,0,0,0.0087890625,86.6953125,0)" xlink:href="#s"/><use transform="matrix(0.0087890625,0,0,0.0087890625,97.5322265625,0)" xlink:href="#y"/></g><path d="M807 0C529-4 430-92 430-369v-608H131v-143h299v-318h184v318h418v143H614v608c2 165 49 222 211 222h207V0H807" id="z"/><g id="f"><use transform="matrix(0.008680555555555556,0,0,0.008680555555555556,0,0)" xlink:href="#z"/><use transform="matrix(0.008680555555555556,0,0,0.008680555555555556,10.703125,0)" xlink:href="#w"/><use transform="matrix(0.008680555555555556,0,0,0.008680555555555556,21.40625,0)" xlink:href="#m"/></g></defs></g></svg>