<svg xmlns="http://www.w3.org/2000/svg" xmlns:xlink="http://www.w3.org/1999/xlink" xmlns:lucid="lucid" width="870" height="400.87"><g transform="translate(10 10)" lucid:page-tab-id="0b7fZLUoV3gJ"><path d="M490 80.58c0-5.52 4.48-10 10-10h280c5.52 0 10 4.48 10 10v228.84c0 5.52-4.48 10-10 10H500c-5.52 0-10-4.48-10-10z" fill="#fff"/><path d="M495.05 72.02l1.8-.93 3.15-.52h4.9m4.92 0h9.83m4.9 0h9.84m4.9 0h9.82m4.92 0h9.82m4.9 0h9.84m4.9 0h9.83m4.92 0h9.82m4.9 0h9.84m4.92 0h9.82m4.92 0h9.82m4.9 0h9.84m4.9 0h9.83m4.92 0h9.82m4.9 0h9.83m4.9 0h9.83m4.92 0h9.82m4.9 0h9.84m4.9 0h9.84m4.9 0H780l3.16.5 1.8.94m3.6 3.6l.93 1.8.5 3.16v5.1m0 5.07v10.17m0 5.1v10.16m0 5.08v10.17m0 5.1v10.16m0 5.08v10.17m0 5.08v10.17m0 5.1v10.16m0 5.08v10.17m0 5.1v10.17m0 5.08v10.17m0 5.1v10.16m0 5.1v10.16m0 5.08V284m0 5.08v10.17m0 5.08v5.1l-.5 3.15-.93 1.8m-3.62 3.6l-1.8.93-3.15.52h-4.9m-4.92 0h-9.83m-4.9 0h-9.84m-4.9 0h-9.82m-4.92 0h-9.82m-4.9 0h-9.84m-4.9 0h-9.83m-4.92 0h-9.82m-4.9 0h-9.84m-4.92 0h-9.82m-4.92 0h-9.82m-4.9 0h-9.84m-4.9 0h-9.83m-4.92 0h-9.82m-4.9 0h-9.83m-4.9 0h-9.83m-4.92 0h-9.82m-4.9 0h-9.84m-4.9 0h-9.84m-4.9 0H500l-3.16-.5-1.8-.94m-3.6-3.6l-.93-1.8-.5-3.16v-5.1m0-5.07v-10.17m0-5.1v-10.16m0-5.08v-10.17m0-5.1v-10.16m0-5.08v-10.17m0-5.08V212.8m0-5.1v-10.16m0-5.08V182.3m0-5.1v-10.17m0-5.08v-10.17m0-5.1v-10.16m0-5.1v-10.16m0-5.08V106m0-5.08V90.75m0-5.08v-5.1l.5-3.15.93-1.8" stroke="#333" fill="none"/><path d="M612.67 210.4c0-5.53 4.48-10 10-10H770c5.52 0 10 4.47 10 10v77.96c0 5.52-4.48 10-10 10H622.67c-5.52 0-10-4.48-10-10z" stroke="#000" stroke-width="2" fill="#fff"/><path d="M612.3 199.42H690v31.45h-77.7z" fill="#fff" fill-opacity="0"/><use xlink:href="#a" transform="matrix(1,0,0,1,617.2870568554217,204.41815614256993) translate(5.9042968749999964 15.814019097222223)"/><path d="M600 261.67c0-1.65 1.34-3 3-3h50.8c1.64 0 3 1.35 3 3v20.58c0 1.65-1.36 3-3 3H603c-1.66 0-3-1.35-3-3z" stroke="#000" stroke-width="2" fill="#c7e8ac"/><use xlink:href="#b" transform="matrix(1,0,0,1,605,263.6720112714922) translate(0.967809606481481 13.438802083333334)"/><path d="M612.3 110.58h97.33v36.67H612.3z" stroke="#000" stroke-width="2" fill="#c1e4f7"/><use xlink:href="#c" transform="matrix(1,0,0,1,617.2870568554217,115.58184385743007) translate(22.59375 16.50173611111111)"/><path d="M600 143.58c0-1.66 1.34-3 3-3h50.8c1.64 0 3 1.34 3 3v20.58c0 1.65-1.36 3-3 3H603c-1.66 0-3-1.35-3-3z" stroke="#000" stroke-width="2" fill="#c7e8ac"/><use xlink:href="#d" transform="matrix(1,0,0,1,605,145.58184385743013) translate(3.431640625 13.438802083333334)"/><path d="M500 110.58h60v36.67h-60z" stroke="#000" stroke-width="2" fill="#c1e4f7"/><use xlink:href="#e" transform="matrix(1,0,0,1,505.00000000000006,115.58184385743007) translate(8.9453125 16.50173611111111)"/><path d="M480 143.58c0-1.66 1.34-3 3-3h44c1.66 0 3 1.34 3 3v20.58c0 1.65-1.34 3-3 3h-44c-1.66 0-3-1.35-3-3z" stroke="#000" stroke-width="2" fill="#c7e8ac"/><use xlink:href="#f" transform="matrix(1,0,0,1,485,145.58184385743013) translate(8.458984375 13.438802083333334)"/><path d="M50 80c0-5.52 4.48-10 10-10h330c5.52 0 10 4.48 10 10v230c0 5.52-4.48 10-10 10H60c-5.52 0-10-4.48-10-10z" fill="#fff"/><path d="M55.05 71.43l1.8-.92L60 70h5m5 0h10m5 0h10m5 0h10m5 0h10m5 0h10m5 0h10m5 0h10m5 0h10m5 0h10m5 0h10m5 0h10m5 0h10m5 0h10m5 0h10m5 0h10m5 0h10m5 0h10m5 0h10m5 0h10m5 0h10m5 0h10m5 0h5l3.16.5 1.8.93m3.6 3.62l.93 1.8.5 3.15v5.1m0 5.12v10.22m0 5.12v10.22m0 5.1v10.23m0 5.12v10.22m0 5.12v10.22m0 5.1v10.23m0 5.12v10.22m0 5.12v10.22m0 5.1v10.23m0 5.12v10.22m0 5.12v10.22m0 5.1v10.23m0 5.12v10.22m0 5.12v10.22m0 5.1V310l-.5 3.16-.93 1.8m-3.62 3.6l-1.8.93-3.15.5h-5m-5 0h-10m-5 0h-10m-5 0h-10m-5 0h-10m-5 0h-10m-5 0h-10m-5 0h-10m-5 0h-10m-5 0h-10m-5 0h-10m-5 0h-10m-5 0h-10m-5 0h-10m-5 0h-10m-5 0h-10m-5 0h-10m-5 0h-10m-5 0h-10m-5 0h-10m-5 0H85m-5 0H70m-5 0h-5l-3.16-.5-1.8-.93m-3.6-3.62l-.93-1.8L50 310v-5.1m0-5.12v-10.22m0-5.12v-10.22m0-5.1v-10.23m0-5.12v-10.22m0-5.12v-10.22m0-5.1v-10.23m0-5.12v-10.22m0-5.12v-10.22m0-5.1v-10.23m0-5.12v-10.22m0-5.12v-10.22m0-5.1v-10.23m0-5.12v-10.22m0-5.12V90.22m0-5.1V80l.5-3.16.93-1.8" stroke="#333" fill="none"/><path d="M330 135.42h60v36.66h-60z" stroke="#000" stroke-width="2" fill="#c1e4f7"/><use xlink:href="#e" transform="matrix(1,0,0,1,335.00000000000006,140.41815614256998) translate(8.9453125 19.87673611111111)"/><path d="M60.4 113.54h97.33v36.66H60.4z" stroke="#000" stroke-width="2" fill="#c1e4f7"/><use xlink:href="#g" transform="matrix(1,0,0,1,65.38635639093633,118.53586633881642) translate(22.59375 16.50173611111111)"/><path d="M110.4 143.58c0-1.66 1.33-3 3-3h50.77c1.66 0 3 1.34 3 3v20.58c0 1.65-1.34 3-3 3H113.4c-1.67 0-3-1.35-3-3z" stroke="#000" stroke-width="2" fill="#c7e8ac"/><use xlink:href="#h" transform="matrix(1,0,0,1,115.38635639093621,145.58184385743013) translate(3.431640625 13.438802083333334)"/><path d="M60.4 210.4c0-5.53 4.46-10 10-10h77.33c5.52 0 10 4.47 10 10v77.96c0 5.52-4.48 10-10 10H70.4c-5.54 0-10-4.48-10-10z" stroke="#000" stroke-width="2" fill="#fff"/><path d="M60.4 199.42H130v31.45H60.4z" fill="#fff" fill-opacity="0"/><use xlink:href="#i" transform="matrix(1,0,0,1,65.38635639093667,204.41815614256993) translate(3.2421875 16.50173611111111)"/><path d="M110.4 262.84c0-1.66 1.33-3 3-3h50.77c1.66 0 3 1.34 3 3v20.57c0 1.67-1.34 3-3 3H113.4c-1.67 0-3-1.33-3-3z" stroke="#000" stroke-width="2" fill="#c7e8ac"/><use xlink:href="#j" transform="matrix(1,0,0,1,115.38635639093621,264.83569898635227) translate(0.967809606481481 13.438802083333334)"/><path d="M409.5 153.75h25.44c.03 0 .06.03.06.06 0 .04.03.07.06.07h25.44" fill="none"/><path d="M409.5 153.75h8.48m8.48 0h8.48l.04.02.02.04.02.05.04.02h8.48m8.48 0h8.48" stroke="#ccc" stroke-width="2" fill="none"/><path d="M394.24 153.75l14.26-4.63v9.27zM475.76 153.87l-14.26 4.63v-9.27z" stroke="#ccc" stroke-width="2" fill="#ccc"/><path d="M550 339.42h190v31.45H550z" fill="#fff" fill-opacity="0"/><use xlink:href="#k" transform="matrix(1,0,0,1,555.0000000000002,344.4181561425699) translate(4.375 16.50173611111111)"/><path d="M175 339.42h100v31.45H175z" fill="#fff" fill-opacity="0"/><use xlink:href="#l" transform="matrix(1,0,0,1,179.99999999999994,344.4181561425699) translate(-2.6640625 17.15451388888889)"/><path d="M10 10h160v36.67H10zM680 10h160v36.67H680z" stroke="#000" stroke-opacity="0" stroke-width="2" fill-opacity="0"/><defs><path d="M0-1120h182l195 905 160-578h157l162 578 195-905h182L971 0H795L616-614 438 0H262" id="m"/><path d="M616-991c-93 0-161 39-212 109-92 126-92 520 0 646 52 70 119 109 212 109 94 0 161-39 213-109 93-126 92-520 0-646-52-70-119-109-213-109zM137-559c0-353 146-588 479-588s480 235 480 588c0 355-145 588-480 588-334 0-479-234-479-588" id="n"/><path d="M915-1147c102 0 174 26 240 70v188c-71-55-140-88-254-88-243 0-354 165-354 420V0H362v-1120h185v219c55-146 178-246 368-246" id="o"/><path d="M236-1556h190v901l483-465h224L692-698 1202 0H977L563-578 426-449V0H236v-1556" id="p"/><path d="M651-1147c298 0 466 229 461 541v90H315c-4 242 129 392 365 389 156-2 268-51 389-113v183C949-8 828 27 678 29c-351 3-555-232-555-588 0-338 200-588 528-588zm277 487c-4-201-91-331-285-331-193 0-305 144-321 332" id="q"/><g id="a"><use transform="matrix(0.007595486111111112,0,0,0.007595486111111112,0,0)" xlink:href="#m"/><use transform="matrix(0.007595486111111112,0,0,0.007595486111111112,9.365234375000002,0)" xlink:href="#n"/><use transform="matrix(0.007595486111111112,0,0,0.007595486111111112,18.730468750000004,0)" xlink:href="#o"/><use transform="matrix(0.007595486111111112,0,0,0.007595486111111112,28.095703125000007,0)" xlink:href="#p"/><use transform="matrix(0.007595486111111112,0,0,0.007595486111111112,37.46093750000001,0)" xlink:href="#q"/><use transform="matrix(0.007595486111111112,0,0,0.007595486111111112,46.82617187500001,0)" xlink:href="#o"/></g><path d="M489-1063h252v303H489v-303zm0 758h252V0H489v-305" id="r"/><path d="M54-142c48-35 137-8 131 61C196 18 31 33 14-55l32-4c7 23 22 37 52 37 35-1 51-22 54-58 4-55-73-65-99-34H22l8-134h141v27H59" id="s"/><path d="M126-127c33 6 58 20 58 59 0 88-139 92-164 29-3-8-5-16-6-25l32-3c6 27 21 44 54 44 32 0 52-15 52-46 0-38-36-46-79-43v-28c39 1 72-4 72-42 0-27-17-43-46-43-28 0-47 15-49 41l-32-3c6-42 35-63 81-64 48-1 79 21 79 65 0 36-21 52-52 59" id="t"/><path d="M101-251c68 0 85 55 85 127S166 4 100 4C33 4 14-52 14-124c0-73 17-127 87-127zm-1 229c47 0 54-49 54-102s-4-102-53-102c-51 0-55 48-55 102 0 53 5 102 54 102" id="u"/><path d="M134-131c28 9 52 24 51 62-1 50-34 73-85 73S17-19 16-69c0-36 21-54 49-61-75-25-45-126 34-121 46 3 78 18 79 63 0 33-17 51-44 57zm-34-11c31 1 46-15 46-44 0-28-17-43-47-42-29 0-46 13-45 42 1 28 16 44 46 44zm1 122c35 0 51-18 51-52 0-30-18-46-53-46-33 0-51 17-51 47 0 34 19 51 53 51" id="v"/><g id="b"><use transform="matrix(0.006510416666666667,0,0,0.006510416666666667,0,0)" xlink:href="#r"/><use transform="matrix(0.03703703703703704,0,0,0.03703703703703704,8.02734375,0)" xlink:href="#s"/><use transform="matrix(0.03703703703703704,0,0,0.03703703703703704,15.434751157407407,0)" xlink:href="#t"/><use transform="matrix(0.03703703703703704,0,0,0.03703703703703704,22.842158564814817,0)" xlink:href="#u"/><use transform="matrix(0.03703703703703704,0,0,0.03703703703703704,30.249565972222225,0)" xlink:href="#v"/><use transform="matrix(0.03703703703703704,0,0,0.03703703703703704,37.65697337962963,0)" xlink:href="#t"/></g><path d="M674 29c-147 0-246-68-299-170v567H190v-1546h185v143c55-101 152-170 299-170 300 0 434 263 434 592 0 325-137 584-434 584zm174-265c87-125 87-521 0-646-48-70-112-109-201-109s-154 38-203 109c-89 127-89 518 0 645 49 71 114 110 203 110s153-39 201-109" id="w"/><path d="M471-1147c112 0 171 55 205 141 41-85 99-141 213-141 90 0 154 35 191 105s55 200 55 393V0H967v-641c0-158-12-256-27-295-31-81-176-72-206 4-17 42-29 138-29 291V0H537v-641c0-160-10-259-29-296s-53-56-102-56-83 20-102 61-28 138-28 291V0H109v-1120h167v96c38-70 97-123 195-123" id="x"/><path d="M559-1147c146 0 246 68 299 170v-579h184V0H858v-141C803-40 706 29 559 29c-300 0-436-264-436-592 0-325 139-584 436-584zM385-882c-81 129-87 521 0 646 49 70 112 109 201 109s152-39 202-110c89-127 83-514 0-645-88-139-315-140-403 0" id="y"/><g id="c"><use transform="matrix(0.008680555555555556,0,0,0.008680555555555556,0,0)" xlink:href="#q"/><use transform="matrix(0.008680555555555556,0,0,0.008680555555555556,10.703125,0)" xlink:href="#w"/><use transform="matrix(0.008680555555555556,0,0,0.008680555555555556,21.40625,0)" xlink:href="#x"/><use transform="matrix(0.008680555555555556,0,0,0.008680555555555556,32.109375,0)" xlink:href="#y"/></g><path d="M735-1309L264-520h471v-789zm-33-184h234v973h199v164H936V0H735v-356H102v-191" id="z"/><path d="M1044-1120c-1 183-111 281-268 321 181 46 302 172 303 387 1 289-218 445-522 441-155-2-297-31-420-74v-201c118 61 239 103 398 105 208 2 343-93 344-291 1-181-141-287-330-283H395v-166h154c169 2 295-74 295-231 0-161-111-239-279-238-146 2-264 35-383 80v-186c132-34 244-61 383-64 268-6 481 146 479 400" id="A"/><path d="M700-1520c110 1 208 25 291 60v186c-76-45-168-75-282-76-128 0-225 48-291 144s-99 239-99 426c56-120 164-206 328-207 298-2 453 200 453 508 0 310-163 509-465 508-173 0-300-63-381-187S133-478 133-745c0-252 48-445 145-577s238-198 422-198zM901-479c0-212-74-350-270-350-186 0-277 151-277 350s91 350 277 350c196 0 271-139 270-350" id="B"/><path d="M326-1012c0 212 72 350 270 350 186 0 276-151 276-350s-90-350-276-350c-196 0-271 139-270 350zM526 29C417 28 318 4 236-31v-186c76 45 168 75 282 76 128 0 224-49 290-145s99-238 99-425c-55 120-164 206-327 207-299 2-453-201-453-510 0-310 162-507 465-506 173 0 300 62 381 187s121 321 121 588c0 251-49 443-146 575S711 29 526 29" id="C"/><g id="d"><use transform="matrix(0.006510416666666667,0,0,0.006510416666666667,0,0)" xlink:href="#r"/><use transform="matrix(0.006510416666666667,0,0,0.006510416666666667,8.02734375,0)" xlink:href="#z"/><use transform="matrix(0.006510416666666667,0,0,0.006510416666666667,16.0546875,0)" xlink:href="#A"/><use transform="matrix(0.006510416666666667,0,0,0.006510416666666667,24.08203125,0)" xlink:href="#B"/><use transform="matrix(0.006510416666666667,0,0,0.006510416666666667,32.109375,0)" xlink:href="#C"/></g><path d="M637-1147c132 1 237 25 336 66v180c-92-53-190-92-322-92-145 0-248 35-248 164 0 50 15 87 46 112 23 30 197 67 303 86 166 30 278 123 278 307 0 239-191 356-446 353-140-2-251-31-371-70v-190c114 58 228 103 375 106 145 3 253-56 256-188 3-87-90-149-253-179-210-38-374-93-374-319 0-232 173-338 420-336" id="D"/><path d="M711-1147c253 0 340 178 340 453V0H866v-694c-1-183-51-293-219-293-189 0-268 148-268 354V0H195v-1556h184v604c60-118 165-195 332-195" id="E"/><g id="e"><use transform="matrix(0.008680555555555556,0,0,0.008680555555555556,0,0)" xlink:href="#D"/><use transform="matrix(0.008680555555555556,0,0,0.008680555555555556,10.703125,0)" xlink:href="#D"/><use transform="matrix(0.008680555555555556,0,0,0.008680555555555556,21.40625,0)" xlink:href="#E"/></g><path d="M563-1520c272-5 493 161 486 422-5 184-82 278-189 404-156 183-266 291-487 524h686V0H152v-170c181-191 381-399 520-561 68-80 112-147 135-197s35-102 35-155c2-166-108-271-275-267-164 4-280 61-403 133v-204c119-56 242-96 399-99" id="F"/><g id="f"><use transform="matrix(0.006510416666666667,0,0,0.006510416666666667,0,0)" xlink:href="#r"/><use transform="matrix(0.006510416666666667,0,0,0.006510416666666667,8.02734375,0)" xlink:href="#F"/><use transform="matrix(0.006510416666666667,0,0,0.006510416666666667,16.0546875,0)" xlink:href="#F"/></g><g id="g"><use transform="matrix(0.008680555555555556,0,0,0.008680555555555556,0,0)" xlink:href="#q"/><use transform="matrix(0.008680555555555556,0,0,0.008680555555555556,10.703125,0)" xlink:href="#w"/><use transform="matrix(0.008680555555555556,0,0,0.008680555555555556,21.40625,0)" xlink:href="#x"/><use transform="matrix(0.008680555555555556,0,0,0.008680555555555556,32.109375,0)" xlink:href="#y"/></g><g id="h"><use transform="matrix(0.006510416666666667,0,0,0.006510416666666667,0,0)" xlink:href="#r"/><use transform="matrix(0.006510416666666667,0,0,0.006510416666666667,8.02734375,0)" xlink:href="#z"/><use transform="matrix(0.006510416666666667,0,0,0.006510416666666667,16.0546875,0)" xlink:href="#A"/><use transform="matrix(0.006510416666666667,0,0,0.006510416666666667,24.08203125,0)" xlink:href="#B"/><use transform="matrix(0.006510416666666667,0,0,0.006510416666666667,32.109375,0)" xlink:href="#C"/></g><path d="M801 0C570 0 455-164 455-406v-1017H160v-144h479v1161c0 147 46 250 180 250h215V0H801" id="G"/><path d="M748-127c144 0 233-46 313-121v191C974-6 875 28 748 29c-351 3-553-232-553-588 0-357 202-591 553-588 129 2 222 35 313 86v193c-88-76-165-123-313-123-245 0-359 174-359 432 0 257 115 432 359 432" id="H"/><path d="M547-125c229-2 340-186 327-438H641c-189 0-321 55-324 225-3 137 91 215 230 213zm-332-944c167-71 431-115 615-37 106 45 186 120 213 246 11 49 16 123 16 221V0H874v-166C800-42 695 26 508 29c-220 3-378-138-375-355 4-274 199-382 494-381h247c6-204-80-285-282-284-149 1-272 46-377 106v-184" id="I"/><g id="i"><use transform="matrix(0.008680555555555556,0,0,0.008680555555555556,0,0)" xlink:href="#G"/><use transform="matrix(0.008680555555555556,0,0,0.008680555555555556,10.703125,0)" xlink:href="#n"/><use transform="matrix(0.008680555555555556,0,0,0.008680555555555556,21.40625,0)" xlink:href="#H"/><use transform="matrix(0.008680555555555556,0,0,0.008680555555555556,32.109375,0)" xlink:href="#I"/><use transform="matrix(0.008680555555555556,0,0,0.008680555555555556,42.8125,0)" xlink:href="#G"/></g><path d="M101-251c82-7 93 87 43 132L82-64C71-53 59-42 53-27h129V0H18c2-99 128-94 128-182 0-28-16-43-45-43s-46 15-49 41l-32-3c6-41 34-60 81-64" id="J"/><g id="j"><use transform="matrix(0.006510416666666667,0,0,0.006510416666666667,0,0)" xlink:href="#r"/><use transform="matrix(0.03703703703703704,0,0,0.03703703703703704,8.02734375,0)" xlink:href="#s"/><use transform="matrix(0.03703703703703704,0,0,0.03703703703703704,15.434751157407407,0)" xlink:href="#t"/><use transform="matrix(0.03703703703703704,0,0,0.03703703703703704,22.842158564814817,0)" xlink:href="#u"/><use transform="matrix(0.03703703703703704,0,0,0.03703703703703704,30.249565972222225,0)" xlink:href="#v"/><use transform="matrix(0.03703703703703704,0,0,0.03703703703703704,37.65697337962963,0)" xlink:href="#J"/></g><path d="M489-305h252V0H489v-305" id="K"/><path d="M1153-1120C1010-750 884-433 741-52c-66 176-110 283-133 322-55 94-138 156-276 156H184V272c97 0 188 7 236-47 29-33 70-112 117-243L104-1120h195l332 876 327-876h195" id="L"/><g id="k"><use transform="matrix(0.008680555555555556,0,0,0.008680555555555556,0,0)" xlink:href="#m"/><use transform="matrix(0.008680555555555556,0,0,0.008680555555555556,10.703125,0)" xlink:href="#n"/><use transform="matrix(0.008680555555555556,0,0,0.008680555555555556,21.40625,0)" xlink:href="#o"/><use transform="matrix(0.008680555555555556,0,0,0.008680555555555556,32.109375,0)" xlink:href="#p"/><use transform="matrix(0.008680555555555556,0,0,0.008680555555555556,42.8125,0)" xlink:href="#q"/><use transform="matrix(0.008680555555555556,0,0,0.008680555555555556,53.515625,0)" xlink:href="#o"/><use transform="matrix(0.008680555555555556,0,0,0.008680555555555556,64.21875,0)" xlink:href="#K"/><use transform="matrix(0.008680555555555556,0,0,0.008680555555555556,74.921875,0)" xlink:href="#x"/><use transform="matrix(0.008680555555555556,0,0,0.008680555555555556,85.625,0)" xlink:href="#L"/><use transform="matrix(0.008680555555555556,0,0,0.008680555555555556,96.328125,0)" xlink:href="#I"/><use transform="matrix(0.008680555555555556,0,0,0.008680555555555556,107.03125,0)" xlink:href="#w"/><use transform="matrix(0.008680555555555556,0,0,0.008680555555555556,117.734375,0)" xlink:href="#w"/><use transform="matrix(0.008680555555555556,0,0,0.008680555555555556,128.4375,0)" xlink:href="#K"/><use transform="matrix(0.008680555555555556,0,0,0.008680555555555556,139.140625,0)" xlink:href="#H"/><use transform="matrix(0.008680555555555556,0,0,0.008680555555555556,149.84375,0)" xlink:href="#n"/><use transform="matrix(0.008680555555555556,0,0,0.008680555555555556,160.546875,0)" xlink:href="#x"/></g><path d="M807 0C529-4 430-92 430-369v-608H131v-143h299v-318h184v318h418v143H614v608c2 165 49 222 211 222h207V0H807" id="M"/><g id="l"><use transform="matrix(0.008680555555555556,0,0,0.008680555555555556,0,0)" xlink:href="#G"/><use transform="matrix(0.008680555555555556,0,0,0.008680555555555556,10.703125,0)" xlink:href="#n"/><use transform="matrix(0.008680555555555556,0,0,0.008680555555555556,21.40625,0)" xlink:href="#H"/><use transform="matrix(0.008680555555555556,0,0,0.008680555555555556,32.109375,0)" xlink:href="#I"/><use transform="matrix(0.008680555555555556,0,0,0.008680555555555556,42.8125,0)" xlink:href="#G"/><use transform="matrix(0.008680555555555556,0,0,0.008680555555555556,53.515625,0)" xlink:href="#E"/><use transform="matrix(0.008680555555555556,0,0,0.008680555555555556,64.21875,0)" xlink:href="#n"/><use transform="matrix(0.008680555555555556,0,0,0.008680555555555556,74.921875,0)" xlink:href="#D"/><use transform="matrix(0.008680555555555556,0,0,0.008680555555555556,85.625,0)" xlink:href="#M"/></g></defs></g></svg>